<svg width="1200" height="675" viewBox="0 0 1200 675" fill="none" xmlns="http://www.w3.org/2000/svg">
  <rect width="1200" height="675" fill="#18181B"/>
  <path d="M0 135H1200M0 270H1200M0 405H1200M0 540H1200" stroke="#27272A" stroke-width="1.5" opacity="0.6"/>
  <path d="M240 0V675M480 0V675M720 0V675M960 0V675" stroke="#27272A" stroke-width="1.5" opacity="0.6"/>

  <g transform="translate(100, 80)">
    <rect width="180" height="36" rx="18" fill="#2563EB" opacity="0.2"/>
    <rect width="180" height="36" rx="18" stroke="#3B82F6" stroke-width="1.5"/>
    <text x="90" y="23" fill="#60A5FA" font-family="sans-serif" font-size="13" font-weight="800" text-anchor="middle" letter-spacing="1.5">AI AGENT SERIES</text>
  </g>

  <g transform="translate(100, 160)">
    <rect x="0" y="60" width="220" height="120" rx="16" fill="#27272A" stroke="#3F3F46" stroke-width="2"/>
    <circle cx="40" cy="95" r="14" fill="#3B82F6"/>
    <text x="65" y="100" fill="#FFFFFF" font-family="sans-serif" font-size="15" font-weight="700">1. User Goal</text>
    <text x="40" y="140" fill="#A1A1AA" font-family="sans-serif" font-size="13">"Build AI Agent"</text>

    <path d="M220 120H300" stroke="#3B82F6" stroke-width="3" stroke-dasharray="6 6"/>
    <polygon points="300,115 310,120 300,125" fill="#3B82F6"/>

    <rect x="310" y="30" width="380" height="180" rx="20" fill="#000000" stroke="#3B82F6" stroke-width="2.5"/>
    <rect x="335" y="55" width="140" height="28" rx="14" fill="#1D4ED8"/>
    <text x="405" y="74" fill="#FFFFFF" font-family="sans-serif" font-size="12" font-weight="800" text-anchor="middle">LANGGRAPH LOOP</text>
    <text x="335" y="118" fill="#FFFFFF" font-family="sans-serif" font-size="22" font-weight="800">State &amp; Memory</text>
    <text x="335" y="150" fill="#93C5FD" font-family="sans-serif" font-size="14">Tool Selection ➔ Parameter Schema</text>
    <text x="335" y="175" fill="#34D399" font-family="sans-serif" font-size="13" font-weight="700">✓ Step 03/10 Validated</text>

    <path d="M690 120H770" stroke="#3B82F6" stroke-width="3"/>
    <polygon points="770,115 780,120 770,125" fill="#3B82F6"/>

    <rect x="780" y="60" width="220" height="120" rx="16" fill="#27272A" stroke="#3F3F46" stroke-width="2"/>
    <circle cx="820" cy="95" r="14" fill="#10B981"/>
    <text x="845" y="100" fill="#FFFFFF" font-family="sans-serif" font-size="15" font-weight="700">3. Execution</text>
    <text x="820" y="140" fill="#34D399" font-family="sans-serif" font-size="13" font-weight="600">Action Complete</text>
  </g>

  <g transform="translate(100, 480)">
    <text x="0" y="40" fill="#FFFFFF" font-family="sans-serif" font-size="38" font-weight="900" letter-spacing="-1">Autonomous AI Agent in Next.js 16</text>
    <text x="0" y="80" fill="#A1A1AA" font-family="sans-serif" font-size="18">Production guide to goal decomposition, tool calling &amp; memory</text>
  </g>
</svg>
