<svg width="1200" height="675" viewBox="0 0 1200 675" fill="none" xmlns="http://www.w3.org/2000/svg">
  <rect width="1200" height="675" fill="#111827"/>
  <path d="M0 135H1200M0 270H1200M0 405H1200M0 540H1200" stroke="#1F2937" stroke-width="1.5"/>
  <path d="M240 0V675M480 0V675M720 0V675M960 0V675" stroke="#1F2937" stroke-width="1.5"/>

  <g transform="translate(100, 80)">
    <rect width="180" height="36" rx="18" fill="#4338CA" opacity="0.2"/>
    <rect width="180" height="36" rx="18" stroke="#6366F1" stroke-width="1.5"/>
    <text x="90" y="23" fill="#818CF8" font-family="sans-serif" font-size="13" font-weight="800" text-anchor="middle" letter-spacing="1.5">VECTOR DB BENCHMARKS</text>
  </g>

  <g transform="translate(100, 160)">
    <rect x="0" y="50" width="280" height="150" rx="16" fill="#1F2937" stroke="#374151" stroke-width="2"/>
    <text x="30" y="90" fill="#9CA3AF" font-family="sans-serif" font-size="12" font-weight="800">MANAGED SAAS</text>
    <text x="30" y="125" fill="#F9FAFB" font-family="sans-serif" font-size="24" font-weight="900">Pinecone</text>
    <text x="30" y="160" fill="#10B981" font-family="sans-serif" font-size="14">p95 Latency: 12ms</text>

    <rect x="320" y="30" width="360" height="180" rx="20" fill="#4338CA" opacity="0.1"/>
    <rect x="320" y="30" width="360" height="180" rx="20" stroke="#6366F1" stroke-width="2.5"/>
    <rect x="345" y="55" width="130" height="28" rx="14" fill="#4F46E5"/>
    <text x="410" y="74" fill="#FFFFFF" font-family="sans-serif" font-size="12" font-weight="800" text-anchor="middle">RUST HNSW</text>
    <text x="345" y="118" fill="#F9FAFB" font-family="sans-serif" font-size="24" font-weight="900">Qdrant Engine</text>
    <text x="345" y="152" fill="#34D399" font-family="sans-serif" font-size="15" font-weight="800">Fastest QPS: 8ms (p95) ★</text>
    <text x="345" y="175" fill="#C7D2FE" font-family="sans-serif" font-size="13">Payload Filtering In-Memory</text>

    <rect x="700" y="50" width="280" height="150" rx="16" fill="#1F2937" stroke="#374151" stroke-width="2"/>
    <text x="730" y="90" fill="#9CA3AF" font-family="sans-serif" font-size="12" font-weight="800">POSTGRESQL EXTENSION</text>
    <text x="730" y="125" fill="#F9FAFB" font-family="sans-serif" font-size="24" font-weight="900">Pgvector</text>
    <text x="730" y="160" fill="#60A5FA" font-family="sans-serif" font-size="14">Unified SQL + Vectors</text>
  </g>

  <g transform="translate(100, 480)">
    <text x="0" y="40" fill="#FFFFFF" font-family="sans-serif" font-size="38" font-weight="900" letter-spacing="-1">Pinecone vs Qdrant vs Pgvector</text>
    <text x="0" y="80" fill="#9CA3AF" font-family="sans-serif" font-size="18">HNSW vs IVF indexing, latency &amp; memory benchmarks</text>
  </g>
</svg>
